<?xml version="1.0" standalone="no"?>
<!DOCTYPE svg PUBLIC "-//W3C//DTD SVG 20010904//EN"
 "http://www.w3.org/TR/2001/REC-SVG-20010904/DTD/svg10.dtd">
<svg version="1.0" xmlns="http://www.w3.org/2000/svg"
 width="500.000000pt" height="500.000000pt" viewBox="0 0 500.000000 500.000000"
 preserveAspectRatio="xMidYMid meet">

<g transform="translate(0.000000,500.000000) scale(0.100000,-0.100000)"
fill="#000000" stroke="none">
<path d="M0 2500 l0 -2500 2500 0 2500 0 0 2500 0 2500 -2500 0 -2500 0 0
-2500z m3082 1272 c63 -86 118 -162 121 -169 7 -10 -119 -113 -138 -113 -5 0
-16 6 -24 14 -14 12 -25 6 -88 -40 -66 -50 -73 -58 -93 -118 -12 -36 -35 -82
-51 -103 -30 -37 -30 -38 -9 -47 11 -5 19 -14 17 -20 -15 -39 -117 -377 -117
-388 0 -10 22 -13 92 -13 l93 0 3 -131 3 -131 -62 -7 c-34 -3 -196 -6 -360 -6
l-299 0 0 -275 0 -275 -155 0 -156 0 1 278 1 277 -35 3 -36 3 0 134 0 135 162
2 161 3 85 275 c46 151 87 278 91 283 4 4 31 0 60 -9 29 -8 55 -13 57 -11 3 2
13 48 23 101 11 54 26 105 35 115 9 10 92 65 184 121 204 126 201 124 179 148
-9 10 -17 23 -17 28 0 12 142 104 151 98 4 -2 59 -75 121 -162z m-327 -1422
l0 -75 -215 -3 c-118 -1 -225 0 -237 3 -21 5 -23 11 -23 74 0 37 3 71 7 75 4
3 110 5 237 4 l231 -3 0 -75z m-735 -772 c0 -172 8 -201 54 -206 83 -10 96 19
96 221 l0 137 56 0 56 0 -3 -177 c-5 -207 -13 -232 -89 -271 -38 -20 -56 -23
-113 -19 -73 5 -103 20 -141 71 -19 25 -21 44 -24 212 l-4 184 56 0 56 0 0
-152z m544 -18 l26 -9 -21 -44 c-21 -42 -23 -44 -49 -34 -22 8 -33 7 -54 -6
-25 -17 -26 -22 -26 -107 l0 -90 -55 0 -56 0 3 143 3 142 53 3 c41 2 52 0 52
-12 0 -13 5 -13 33 4 36 22 54 24 91 10z m316 -19 c41 -29 50 -59 50 -168 l0
-103 -55 0 -55 0 0 94 c0 73 -4 98 -16 110 -19 20 -34 20 -62 0 -20 -14 -22
-23 -22 -110 l0 -94 -55 0 -56 0 3 143 3 142 49 3 c28 2 52 -1 56 -8 4 -7 15
-6 36 5 34 18 87 13 124 -14z m283 15 c20 -8 37 -10 37 -5 0 5 23 9 50 9 l50
0 0 -145 0 -145 -50 0 c-28 0 -50 5 -50 10 0 6 -13 4 -30 -5 -37 -19 -83 -19
-125 1 -110 52 -104 229 10 280 38 17 60 17 108 0z m414 -6 c49 -22 83 -70 83
-117 l0 -33 -105 0 c-63 0 -105 -4 -105 -10 0 -18 39 -50 61 -50 11 0 33 7 48
16 25 15 30 15 59 0 38 -20 39 -26 10 -54 -73 -68 -206 -51 -258 33 -18 29
-22 47 -18 91 4 45 10 61 39 90 53 55 116 66 186 34z"/>
<path d="M2349 3117 c-80 -53 -103 -149 -56 -232 60 -105 218 -113 288 -13 35
49 39 142 7 188 -38 56 -82 80 -148 80 -43 0 -65 -6 -91 -23z m135 -31 c51
-21 76 -60 76 -117 0 -40 -5 -55 -29 -81 -27 -31 -34 -33 -91 -33 -57 0 -64 2
-91 33 -16 18 -29 43 -29 57 0 25 1 25 93 27 l92 2 -92 3 c-82 3 -93 6 -93 22
0 26 38 71 74 87 40 17 49 17 90 0z"/>
<path d="M2310 2350 l0 -50 215 0 215 0 0 50 0 50 -215 0 -215 0 0 -50z"/>
<path d="M3091 1454 c-26 -33 -27 -58 -1 -84 43 -43 110 -14 110 48 0 59 -72
83 -109 36z"/>
<path d="M3470 1485 c-18 -22 -9 -27 46 -23 46 3 47 4 30 21 -22 21 -59 22
-76 2z"/>
</g>
</svg>
